<svg xmlns="http://www.w3.org/2000/svg" xmlns:xlink="http://www.w3.org/1999/xlink" viewBox="0 0 117.91 100.54"><defs><linearGradient id="b84379be-cc02-49d7-875d-7cf723e06e02" x1="29.91" y1="93.55" x2="94.31" y2="29.14" gradientTransform="matrix(1, 0, 0, -1, 0, 102)" gradientUnits="userSpaceOnUse"><stop offset="0" stop-color="#ffb2c2"></stop><stop offset="1" stop-color="#f85e8a"></stop></linearGradient></defs><title>7626</title><g id="b41ce5be-a517-4475-827b-4aa42ebf5588"><g id="aa65c2e0-e1c1-4422-b0cb-27cb4a0d681d"><path d="M48.15,23.27C34.61,26.41,35,38.61,43.31,41.61s13.2.7,14.67,3.33c1.21,2.17-2.19,17.43,10.27,36.43,4.55,6.93,7.24,13.75-3.93,12.75s-39-9.33-49.85-42.34S35.48,1.45,64.15.1c31.2-1.47,47.18,13.5,45.51,35.51s-11.5,38.84-20.5,38-14.75-15.19-15-24.18c-.17-5.91.08-6.94,5.74-7.83,4.94-.78,11.32-.16,10.77-11.67C90.16,19.59,71.72,17.8,48.15,23.27Z" fill="url(#b84379be-cc02-49d7-875d-7cf723e06e02)"></path><path d="M67.09,94.16h0c-.83-7.76-7.66-21.92-8.37-38.85-.6-5.61-.18-9.37-.74-10.37-1.47-2.63-6.33-.33-14.67-3.33-7.94-2.91-8.65-14.09,3-17.84-24.16,7-24.26,36.63-12.83,56.94l.06,0c5.54,9.8,13.78,17.43,23.29,19.25C65.45,101.68,67.63,99.37,67.09,94.16ZM40.54,85.75a57.61,57.61,0,0,0,23.78,8.37A57.51,57.51,0,0,1,40.54,85.75Zm7-62.32c-.4.1-.78.23-1.17.34C46.73,23.65,47.12,23.53,47.52,23.43Z" fill="#ff8d27" opacity="0.5"></path><path d="M43.48,3.86h0C28.4,4.48,14.75,9.56,11,20.22c-2.54,7.18-1.67,13.1,1.31,18.19v0C22.47,55.72,57.15,63.53,66.79,79,56.07,61.13,59.14,47,58,44.94c-1.47-2.63-6.33-.33-14.67-3.33s-8.7-15.2,4.84-18.34c23.57-5.47,42-3.68,42.51,6.67a17.64,17.64,0,0,1-.54,5.92C100.5,15.44,69.83,2.86,43.48,3.86ZM34.35,7.62a48,48,0,0,0-12.62,9A48,48,0,0,1,34.35,7.62ZM21.69,16.69l-.16.17Z" fill="#ff0098" opacity="0.6"></path><path d="M108.35,45.3a81.13,81.13,0,0,0,1.31-9.69,35.24,35.24,0,0,0-1.13-12.39c4.34,1.78,7.48,4.06,8.73,6.83C119.69,35.45,115,40.47,108.35,45.3ZM46,23.89c.71-.24,1.43-.45,2.16-.62,23.57-5.47,42-3.68,42.51,6.67.55,11.51-5.83,10.89-10.77,11.67-5.66.89-5.91,1.92-5.74,7.83C74.36,57,78.43,68.26,85,72.22c-9.44-9.11,10.55-17.65,23.32-26.92a81.13,81.13,0,0,0,1.31-9.69,35.22,35.22,0,0,0-1.1-12.39C92.83,16.79,61.35,16.93,46,23.89Z" fill="#6d59d1" opacity="0.5" style="isolation:isolate"></path><path d="M80.94,84.27c-2.25,1.82,7.21,18.18,12.23,14.15S83.19,82.45,80.94,84.27ZM10.59,45.56c1,1.7-4,6.52-6.21,2.75S9.59,43.86,10.59,45.56Z" fill="#f757af"></path><path d="M86.84,81c-2.88,1.49,4.65,6.39,6.51,3.59S88.68,80,86.84,81Zm25.42-58.59c3.45-1.25.79-5.46-1.59-2.68C109.3,21.32,110.35,23.1,112.26,22.41Z" fill="#ab8eeb"></path><path d="M9.19,41.8C7.41,43,3.37,43.8,1,42.15c-2-1.39-1.5-8,6.12-4C11.48,40.5,10.05,41.24,9.19,41.8Z" fill="#ffbd88"></path></g></g></svg>